<?xml version="1.0" encoding="UTF-8" standalone="no"?>
<!DOCTYPE svg PUBLIC "-//W3C//DTD SVG 1.1//EN" "http://www.w3.org/Graphics/SVG/1.1/DTD/svg11.dtd">
<svg width="100%" height="100%" viewBox="0 0 512 512" version="1.1" xmlns="http://www.w3.org/2000/svg" xmlns:xlink="http://www.w3.org/1999/xlink" xml:space="preserve" xmlns:serif="http://www.serif.com/" style="fill-rule:evenodd;clip-rule:evenodd;stroke-linejoin:round;stroke-miterlimit:2;">
    <g>
        <path d="M217,25L217,55L247,55L247,25L217,25ZM265,25L265,55L295,55L295,25L265,25ZM313,25L313,55L343,55L343,25L313,25ZM217,73L217,119L247,119L247,73L217,73ZM265,73L265,119L295,119L295,73L265,73ZM313,73L313,119L343,119L343,73L313,73ZM217,137L217,183L247,183L247,137L217,137ZM265,137L265,183L295,183L295,137L265,137ZM313,137L313,183L343,183L343,137L313,137ZM487,143.508L393,197.223L393,215L487,215L487,143.508ZM217,201L217,247L247,247L247,201L217,201ZM265,201L265,247L295,247L295,201L265,201ZM313,201L313,247L343,247L343,201L313,201ZM393,233L393,343L487,343L487,233L393,233ZM39,256L39,279L57,279L57,256L39,256ZM217,265L217,311L247,311L247,265L217,265ZM265,265L265,311L295,311L295,265L265,265ZM313,265L313,311L343,311L343,265L313,265ZM37.562,297L30.562,311L177.437,311L170.437,297L37.562,297ZM25,329L25,487L48,487L48,464L80,464L80,487L128,487L128,464L160,464L160,487L183,487L183,329L25,329ZM217,329L217,375L247,375L247,329L217,329ZM265,329L265,375L295,375L295,329L265,329ZM313,329L313,375L343,375L343,329L313,329ZM48,352L80,352L80,368L48,368L48,352ZM128,352L160,352L160,368L128,368L128,352ZM393,361L393,487L424,487L424,464L456,464L456,487L487,487L487,361L393,361ZM48,384L80,384L80,400L48,400L48,384ZM128,384L160,384L160,400L128,400L128,384ZM217,393L217,439L247,439L247,393L217,393ZM265,393L265,439L295,439L295,393L265,393ZM313,393L313,439L343,439L343,393L313,393ZM48,416L80,416L80,432L48,432L48,416ZM128,416L160,416L160,432L128,432L128,416ZM217,457L217,487L247,487L247,457L217,457ZM265,457L265,487L295,487L295,457L265,457ZM313,457L313,487L343,487L343,457L313,457Z" style="fill:white;fill-rule:nonzero;"/>
    </g>
</svg>
