<?xml version="1.0" encoding="UTF-8" standalone="no"?>
<!DOCTYPE svg PUBLIC "-//W3C//DTD SVG 1.1//EN" "http://www.w3.org/Graphics/SVG/1.1/DTD/svg11.dtd">
<svg width="100%" height="100%" viewBox="0 0 512 512" version="1.1" xmlns="http://www.w3.org/2000/svg" xmlns:xlink="http://www.w3.org/1999/xlink" xml:space="preserve" xmlns:serif="http://www.serif.com/" style="fill-rule:evenodd;clip-rule:evenodd;stroke-linejoin:round;stroke-miterlimit:2;">
    <g>
        <path d="M372.533,21.966L362.7,39.524L387.578,76.144L379.09,120.597L413.215,170.831L432.24,157.908L429.342,219.84L429.442,219.843L420.17,393.396C418.89,410.566 411.452,415.308 406.047,415.326C400.654,415.346 392.47,410.273 390.097,392.972L374.109,169.157L374.079,168.923C372.406,155.479 367.067,144.158 356.969,137.53C348.327,131.857 337.571,129.677 324.147,129.165L324.147,122.035C324.147,99.019 320.267,85.678 312.845,78.191C305.425,70.704 292.322,66.807 269.237,67.035L141.148,67.035C118.148,67.035 104.966,70.945 97.512,78.398C90.057,85.853 86.148,99.035 86.148,122.035L86.148,442.035L61.148,442.035L61.148,490.035L349.148,490.035L349.148,442.035L324.148,442.035L324.148,147.208C335.376,147.778 342.776,149.746 347.092,152.578C352.23,155.952 354.885,160.624 356.197,171.044L372.191,394.956L372.231,395.236C375.345,418.362 389.633,433.386 406.114,433.326C422.594,433.266 436.418,417.738 438.124,394.698L438.132,394.606L447.539,218.52L447.426,218.514L450.854,145.264L449.52,135.29L372.535,21.966L372.533,21.966ZM401.883,97.202L429.573,137.958L417.99,145.828L398.17,116.648L401.883,97.202ZM109.148,106.034L301.148,106.034L301.148,186.034L109.148,186.034L109.148,106.034ZM125.148,209.034L285.148,209.034L285.148,227.034L125.148,227.034L125.148,209.034ZM125.148,241.034L285.148,241.034L285.148,259.034L125.148,259.034L125.148,241.034Z" style="fill:white;fill-rule:nonzero;"/>
    </g>
</svg>
