<?xml version="1.0" encoding="UTF-8" standalone="no"?>
<!DOCTYPE svg PUBLIC "-//W3C//DTD SVG 1.1//EN" "http://www.w3.org/Graphics/SVG/1.1/DTD/svg11.dtd">
<svg width="100%" height="100%" viewBox="0 0 512 512" version="1.1" xmlns="http://www.w3.org/2000/svg"
    style="fill-rule:evenodd;clip-rule:evenodd;stroke-linejoin:round;stroke-miterlimit:2;">
    <g>
        <path
            d="M118.125,18.285C67.509,18.285 26.277,59.519 26.277,110.135C26.277,126.918 30.815,142.665 38.721,156.225C36.704,162.93 35.618,170.045 35.618,177.428C35.618,209.21 55.658,236.333 83.776,246.868C77.913,253.828 74.362,262.79 74.362,272.538C74.362,284.265 79.5,294.861 87.629,302.195C51.354,309.725 23.959,341.968 23.959,380.425C23.959,424.435 59.839,460.315 103.852,460.315C120.104,460.315 135.239,455.412 147.877,447.023C161.362,465.518 183.181,477.553 207.805,477.553C241.113,477.553 268.949,455.396 278.287,425.139C278.447,425.056 278.61,424.979 278.77,424.895C301.2,422.825 322.12,415.85 340.455,404.94C350.898,420.936 368.119,432.132 387.982,434.38C387.915,435.422 387.869,436.47 387.869,437.527C387.869,464.137 409.642,485.907 436.252,485.907C462.862,485.907 484.635,464.137 484.635,437.527C484.635,418.035 472.945,401.15 456.235,393.507C458.432,388.025 459.912,382.187 460.549,376.102C475.683,362.526 485.215,342.83 485.215,320.914C485.215,305.782 480.663,291.711 472.869,279.977C488.917,268.007 499.349,248.887 499.349,227.414C499.349,198.282 480.146,173.484 453.762,165.002C454.778,160.142 455.32,155.102 455.32,149.926C455.32,145.056 454.835,140.302 453.938,135.693C462.915,126.81 468.5,114.503 468.5,100.953C468.5,74.038 446.48,52.016 419.563,52.016C409.595,52.016 400.3,55.041 392.543,60.213C386.945,45.251 372.47,34.508 355.63,34.508C333.987,34.508 316.24,52.254 316.24,73.898C316.24,83.998 320.105,93.245 326.425,100.24C316.997,110.737 310.507,123.95 308.245,138.566C294.597,134.378 280.215,131.99 265.2,131.99C258.71,131.99 252.34,132.37 246.07,133.187C245.098,102.837 225.825,77.084 198.948,66.549C183.393,37.839 152.986,18.284 118.128,18.284L118.125,18.285ZM118.125,36.975C125.669,36.975 132.939,38.109 139.777,40.213C138.484,40.103 137.179,40.035 135.857,40.035C110.559,40.035 90.053,60.54 90.053,85.838C90.053,111.136 110.559,131.643 135.857,131.643C161.157,131.643 181.662,111.136 181.662,85.838C181.662,79.602 180.412,73.662 178.154,68.244C186.427,80.099 191.287,94.527 191.287,110.134C191.287,150.651 158.642,183.294 118.125,183.294C77.608,183.294 44.965,150.651 44.965,110.134C44.965,69.619 77.608,36.974 118.125,36.974L118.125,36.975ZM355.627,53.195C356.527,53.195 357.411,53.257 358.279,53.365C353.276,54.825 349.619,59.437 349.619,64.91C349.619,71.556 355.006,76.943 361.651,76.943C368.297,76.943 373.685,71.556 373.685,64.91C373.685,64.46 373.655,64.016 373.605,63.578C375.331,66.608 376.327,70.12 376.327,73.898C376.327,85.443 367.169,94.6 355.627,94.6C344.081,94.6 334.925,85.442 334.925,73.898C334.925,62.354 344.082,53.195 355.625,53.195L355.627,53.195ZM419.561,70.703C422.951,70.703 426.198,71.257 429.231,72.266C419.257,72.539 411.253,80.691 411.253,90.73C411.253,100.942 419.529,109.22 429.741,109.22C439.805,109.22 447.974,101.177 448.211,91.17C449.243,94.234 449.811,97.522 449.811,100.953C449.811,117.771 436.377,131.201 419.561,131.201C402.744,131.201 389.313,117.771 389.313,100.954C389.313,84.137 402.746,70.704 419.563,70.704L419.561,70.703ZM324.483,158.893C328.103,158.893 331.613,159.319 334.985,160.103C319.451,160.173 306.878,172.783 306.878,188.333C306.878,203.929 319.521,216.57 335.116,216.57C350.712,216.57 363.353,203.93 363.353,188.334C363.353,184.224 362.468,180.324 360.89,176.804C366.804,184.521 370.318,194.191 370.318,204.729C370.318,230.153 349.908,250.563 324.482,250.563C299.057,250.563 278.646,230.153 278.646,204.728C278.646,179.301 299.056,158.891 324.482,158.891L324.483,158.893ZM433.803,180.561C434.968,180.561 436.12,180.618 437.265,180.701C427.022,185.714 419.965,196.234 419.965,208.407C419.965,225.437 433.77,239.243 450.8,239.243C464.2,239.243 475.6,230.691 479.852,218.749C480.372,221.557 480.656,224.449 480.656,227.415C480.656,253.403 459.789,274.269 433.801,274.269C407.814,274.269 386.946,253.403 386.946,227.415C386.946,201.428 407.814,180.562 433.802,180.562L433.803,180.561ZM230.03,241.41C230.672,241.41 231.312,241.422 231.95,241.436C205.73,248.342 186.394,272.206 186.394,300.594C186.394,334.384 213.784,361.774 247.576,361.774C281.366,361.774 308.756,334.384 308.756,300.594C308.756,295.762 308.178,291.069 307.119,286.561C314.249,299.305 318.313,314.011 318.313,329.691C318.313,378.561 278.899,417.976 230.03,417.976C181.162,417.976 141.746,378.561 141.746,329.692C141.746,280.825 181.162,241.41 230.031,241.41L230.03,241.41ZM114.338,251.25C117.588,251.25 120.65,251.96 123.388,253.23C123.011,253.194 122.631,253.172 122.244,253.172C115.468,253.172 109.974,258.664 109.974,265.44C109.974,272.215 115.468,277.707 122.244,277.707C128.954,277.707 134.394,272.32 134.502,265.637C135.228,267.797 135.627,270.115 135.627,272.539C135.627,284.409 126.205,293.829 114.337,293.829C102.467,293.829 93.047,284.407 93.047,272.539C93.047,260.669 102.469,251.249 114.337,251.249L114.338,251.25ZM103.848,319.223C108.878,319.223 113.758,319.838 118.43,320.973C118.087,320.963 117.747,320.943 117.402,320.943C93.982,320.943 74.996,339.929 74.996,363.349C74.996,386.769 93.982,405.755 117.402,405.755C128.169,405.755 137.992,401.735 145.472,395.125C149.286,400.043 153.516,404.625 158.115,408.81C147.917,428.347 127.499,441.63 103.848,441.63C69.935,441.63 42.644,414.34 42.644,380.427C42.644,346.514 69.934,319.224 103.848,319.224L103.848,319.223ZM395.361,322.409C397.531,322.409 399.661,322.567 401.748,322.849C389.385,326.775 380.426,338.341 380.426,352.005C380.426,368.9 394.122,382.595 411.018,382.595C425.732,382.595 438.015,372.205 440.941,358.362C441.767,361.858 442.217,365.505 442.217,369.264C442.217,376.401 440.633,383.147 437.811,389.186C437.291,389.169 436.771,389.146 436.247,389.146C417.337,389.146 400.882,400.146 392.934,416.056C368.084,414.806 348.504,394.438 348.504,369.264C348.504,343.276 369.372,322.408 395.36,322.408L395.361,322.409ZM436.248,407.837C438.234,407.837 440.168,408.033 442.041,408.397C434.625,410.143 429.101,416.785 429.101,424.733C429.101,434.013 436.621,441.533 445.898,441.533C455.178,441.533 462.698,434.013 462.698,424.733C462.698,424.439 462.668,424.153 462.652,423.86C464.752,427.944 465.942,432.586 465.942,437.53C465.942,454.04 452.758,467.224 436.248,467.224C419.738,467.224 406.555,454.041 406.555,437.531C406.555,421.021 419.738,407.838 436.248,407.838L436.248,407.837Z"
            style="fill:white;fill-rule:nonzero;" />
    </g>
</svg>