<?xml version="1.0" encoding="UTF-8" standalone="no"?>
<!DOCTYPE svg PUBLIC "-//W3C//DTD SVG 1.1//EN" "http://www.w3.org/Graphics/SVG/1.1/DTD/svg11.dtd">
<svg width="100%" height="100%" viewBox="0 0 512 512" version="1.1" xmlns="http://www.w3.org/2000/svg"
    style="fill-rule:evenodd;clip-rule:evenodd;stroke-linejoin:round;stroke-miterlimit:2;">
    <g>
        <path
            d="M174.688,28.063L174.688,99.688L93.938,99.688L93.938,181.062L22.313,181.062L22.313,341.156L93.938,341.156L93.938,421.876L174.688,421.876L174.688,493.531L334.75,493.531L334.75,421.876L416.125,421.876L416.125,341.156L487.781,341.156L487.781,181.063L416.126,181.063L416.126,99.688L334.75,99.688L334.75,28.064L174.688,28.064L174.688,28.063ZM193.375,46.75L316.063,46.75L316.063,199.75L469.093,199.75L469.093,322.47L316.062,322.47L316.062,474.843L193.375,474.843L193.375,322.47L41,322.47L41,199.75L193.375,199.75L193.375,46.75Z"
            style="fill:white;fill-rule:nonzero;" />
    </g>
</svg>