<?xml version="1.0" encoding="UTF-8" standalone="no"?>
<!DOCTYPE svg PUBLIC "-//W3C//DTD SVG 1.1//EN" "http://www.w3.org/Graphics/SVG/1.1/DTD/svg11.dtd">
<svg width="100%" height="100%" viewBox="0 0 512 512" version="1.1" xmlns="http://www.w3.org/2000/svg"
    style="fill-rule:evenodd;clip-rule:evenodd;stroke-linejoin:round;stroke-miterlimit:2;">
    <g>
        <path
            d="M39.906,27.188C30.788,41.095 28.54,58.178 32.063,77.906C36.263,101.432 48.973,127.944 67.343,152.906C104.085,202.831 163.393,245.988 216.156,252.531L219.844,253.001L222.219,255.845L416.374,490.22C435.726,494.844 448.221,491.965 454.718,485.53C461.265,479.046 464.284,466.525 459.435,446.656L39.908,27.187L39.906,27.188ZM414.97,29.5L306.47,138C294.47,149.998 294.366,163.2 300.562,177.625L303.125,183.595L298.437,188.095L262,222.844L291.594,252.437L326.188,215.905L330.688,211.155L336.656,213.749C351.821,220.284 366.202,220.016 377.344,208.874L485.844,100.374L471.75,86.28L401.187,156.812L388,143.595L458.53,73.065L443.5,58.03L372.97,128.562L359.75,115.344L430.28,44.814L414.97,29.5ZM210.936,271.563L25.53,448.469C20.955,467.419 23.886,479.256 30.062,485.374C36.24,491.492 48.19,494.301 66.906,489.78L240.126,306.813L210.936,271.563Z"
            style="fill:white;fill-rule:nonzero;" />
    </g>
</svg>