<?xml version="1.0" encoding="UTF-8" standalone="no"?>
<!DOCTYPE svg PUBLIC "-//W3C//DTD SVG 1.1//EN" "http://www.w3.org/Graphics/SVG/1.1/DTD/svg11.dtd">
<svg width="100%" height="100%" viewBox="0 0 512 512" version="1.1" xmlns="http://www.w3.org/2000/svg"
    style="fill-rule:evenodd;clip-rule:evenodd;stroke-linejoin:round;stroke-miterlimit:2;">
    <g>
        <path
            d="M321.28,25.25C315.997,25.23 310.616,25.914 305.28,27.344C272.763,36.057 253.157,69.754 262.03,102.281C287.472,195.539 279.3,166.516 303.813,258.251C312.503,290.781 346.233,310.214 378.75,301.501C411.27,292.788 430.864,259.061 421.97,226.531C398.81,141.825 402.213,153.111 383.312,82.345L383.344,82.345L380.188,70.595C373.108,44.175 349.562,26.385 323.531,25.315C322.781,25.283 322.037,25.255 321.281,25.251L321.28,25.25ZM320.47,43.938C339.43,43.601 356.797,56.033 362.062,75.156L362.125,75.436C377.21,131.732 380.543,144.828 386.031,165.436C369.421,182.903 324.203,196.26 304.031,186.219C298.751,166.219 295.155,152.695 280.064,97.374C273.878,74.702 287.374,51.47 310.126,45.374C312.97,44.612 315.803,44.172 318.626,43.999C319.241,43.961 319.858,43.947 320.47,43.936L320.47,43.938ZM179.22,134.968C165.365,134.968 151.516,140.242 141,150.75L140.97,150.75C137.295,154.424 137.89,153.825 134.78,156.938L125.03,166.688L125.094,166.688C93.11,198.792 91.326,200.858 42.438,249.25C21.253,270.22 21.37,304.745 42.406,325.78C63.442,346.817 97.88,346.837 118.906,325.78C176.82,267.784 158.142,285.978 217.406,227.25C238.573,206.273 238.473,171.755 217.436,150.72C206.92,140.2 193.08,134.97 179.219,134.97L179.22,134.968ZM179.22,153.531C188.26,153.531 197.307,156.996 204.25,163.938C218.136,177.824 218.193,200.182 204.28,213.97C168.483,249.443 160.256,257.686 147.25,270.78C128.39,268.165 102.557,240.988 96.937,221.406C110.252,208.056 118.167,199.959 154.187,163.936C161.13,156.994 170.177,153.531 179.219,153.531L179.22,153.531ZM427.905,319C422.448,318.98 416.919,319.675 411.405,321.156C316.087,346.77 346.483,339.028 249.311,364.594C215.613,373.46 195.557,408.424 204.561,442.031C213.566,475.641 248.361,495.755 281.968,486.751C379.063,460.731 348.672,468.361 444.092,443.313C477.802,434.465 497.846,399.485 488.842,365.876C481.526,338.568 457.152,320.161 430.248,319.063C429.472,319.033 428.684,319.003 427.904,319.001L427.905,319ZM332.811,361.78C320.061,383.254 331.613,431.92 352.468,448.313C337.421,452.415 320.314,457.123 277.154,468.688C253.314,475.075 229.01,461.058 222.624,437.218C216.234,413.378 230.239,388.955 254.06,382.688C300.086,370.578 317.088,366.038 332.81,361.781L332.811,361.78Z"
            style="fill-rule:nonzero;" />
    </g>
</svg>