<?xml version="1.0" encoding="UTF-8" standalone="no"?>
<!DOCTYPE svg PUBLIC "-//W3C//DTD SVG 1.1//EN" "http://www.w3.org/Graphics/SVG/1.1/DTD/svg11.dtd">
<svg width="100%" height="100%" viewBox="0 0 512 512" version="1.1" xmlns="http://www.w3.org/2000/svg"
    style="fill-rule:evenodd;clip-rule:evenodd;stroke-linejoin:round;stroke-miterlimit:2;">
    <g>
        <path
            d="M259.2,20.25C235,20.41 209.8,26.19 186.2,36.42C159.7,76.99 147.8,110.1 155.3,155.4C128.4,139.6 112.2,123.8 106.8,96.57C98.06,107.6 90.8,119.4 85.39,131.7C71.33,163.7 69.54,199.2 86.54,235.8L368.2,77.3C345.6,43.11 314.3,26.07 279.7,21.49C275,20.87 270.3,20.49 265.5,20.33C263.4,20.23 261.3,20.23 259.2,20.23L259.2,20.25ZM326.8,122.1L285.9,145.1L224.4,239L183.1,299.6L198.5,310.2L220.5,277.9C228.8,290.1 237.3,302.1 246.2,314L332.9,193.1C325,178.4 316.7,163.9 308,149.6L326.8,122.1ZM250.7,164.9L176.3,206.7C183.4,219.3 190.9,231.8 198.7,244.3L250.7,164.9ZM358.9,187.3L239.3,355.5L254.5,366.3L269.9,344.7C280.9,358.3 292.3,371.6 304,384.6L373.4,280.9C366.7,263.7 359.3,246.7 351.4,230L374.1,198.1L358.9,187.3ZM396.2,281L381.6,302.6C381.6,302.6 381.5,302.5 381.5,302.4L356.6,339.7L295.3,430.5L310.7,440.9L330.1,412.2C338.1,420.4 346.3,428.4 354.7,436.1L402.2,369.2C398.3,354.3 393.9,339.4 389.1,324.7L411.6,291.4L396.2,281ZM422.5,374.1L408.2,394C408.1,393.7 408.1,393.5 408,393.2L368.6,448.7L368.7,448.8L355.2,467.6L370.4,478.6L383,461.1C395.9,471.9 409.2,482.1 422.6,491.8C420.8,467.5 417.7,443.2 413.3,419.1L437.7,385.1L422.5,374.1Z"
            style="fill:white;fill-rule:nonzero;" />
    </g>
</svg>