<?xml version="1.0" encoding="UTF-8" standalone="no"?>
<!DOCTYPE svg PUBLIC "-//W3C//DTD SVG 1.1//EN" "http://www.w3.org/Graphics/SVG/1.1/DTD/svg11.dtd">
<svg width="100%" height="100%" viewBox="0 0 512 512" version="1.1" xmlns="http://www.w3.org/2000/svg" xmlns:xlink="http://www.w3.org/1999/xlink" xml:space="preserve" xmlns:serif="http://www.serif.com/" style="fill-rule:evenodd;clip-rule:evenodd;stroke-linejoin:round;stroke-miterlimit:2;">
    <g>
        <path d="M161.563,19.28C171.656,30.014 178.306,42.958 182.125,56.937C188.327,79.644 187.931,105.085 185.845,131.031C181.669,182.925 171.265,237.543 183.405,271.438C194.801,303.252 213.073,322.148 233.345,331.438C242.065,335.436 251.245,337.648 260.531,338.22C282.726,273.136 277.991,190.076 241.471,133.937C289.823,182.171 312.661,255.005 297.907,331.344L289.127,334.874C291.85,334.066 294.547,333.111 297.22,332.031C339.003,315.161 373.195,265.778 358.97,193.376C352.434,160.111 330.004,113.211 292.47,76.876C259.998,45.444 216.643,21.664 161.562,19.282L161.563,19.28ZM445.53,202.813C444.69,214.913 440.892,226.341 434.97,236.72C424.617,254.86 408.522,270.477 391.094,285.313C356.238,314.983 316.037,342.469 302.781,370.531C290.226,397.114 289.897,419.783 296.595,437.814C299.515,445.674 303.805,452.708 309.22,458.782C362.928,431.995 410.95,377.872 423.03,320.752C423.106,380.398 392.4,439.439 336.406,477.658C372.208,492.203 422.688,482.692 458.126,429.908C474.544,405.452 489.684,362.608 488.938,317.033C488.304,278.345 476.674,237.803 445.531,202.816L445.53,202.813ZM20.656,276.283C11.173,322.161 21.364,363.115 40.156,396.939C62.292,436.779 96.838,466.315 123.281,479.282C180.351,507.27 228.795,490.25 252.531,459.752C184.941,454.652 128.839,418.879 99.095,367.189C138.115,410.617 206.753,433.479 266.657,429.814C268.311,421.851 268.527,413.61 267.127,405.346C263.913,386.381 252.257,366.899 228.095,350.158C202.59,332.488 154.05,328.798 109.032,320.533C86.524,316.403 64.785,310.943 46.752,300.409C36.429,294.379 27.438,286.349 20.658,276.284L20.656,276.283Z" style="fill:white;fill-rule:nonzero;"/>
    </g>
</svg>
