<?xml version="1.0" encoding="UTF-8" standalone="no"?>
<!DOCTYPE svg PUBLIC "-//W3C//DTD SVG 1.1//EN" "http://www.w3.org/Graphics/SVG/1.1/DTD/svg11.dtd">
<svg width="100%" height="100%" viewBox="0 0 512 512" version="1.1" xmlns="http://www.w3.org/2000/svg"
    style="fill-rule:evenodd;clip-rule:evenodd;stroke-linejoin:round;stroke-miterlimit:2;">
    <g>
        <path
            d="M140,29.92C108.6,29.92 80.11,33.17 60.11,38.17C50.21,40.67 42.31,43.68 37.71,46.42C34.51,48.29 33.61,49.57 33.21,50C33.61,50.43 34.51,51.71 37.71,53.58C42.31,56.32 50.21,59.33 60.11,61.83C80.11,66.83 108.6,70.08 140,70.08L145.7,70.08C151,68.08 156.8,66.3 163.3,64.68C183.6,59.6 209.8,56.26 239.1,55.32C240.3,54.75 241.4,54.18 242.3,53.62C245.4,51.75 246.4,50.47 246.8,50.04C246.4,49.61 245.4,48.33 242.3,46.46C237.7,43.72 229.8,40.71 219.8,38.21C199.9,33.21 171.4,29.96 140,29.96L140,29.92ZM372,29.92C340.6,29.92 312.1,33.17 292.2,38.17C282.2,40.67 274.3,43.68 269.7,46.42C266.6,48.29 265.6,49.57 265.2,50C265.6,50.43 266.6,51.71 269.7,53.58C270.6,54.14 271.7,54.71 272.9,55.28C302.2,56.22 328.4,59.56 348.7,64.64C355.2,66.26 361,68.04 366.3,70.04L372,70.04C403.4,70.04 431.9,66.79 451.8,61.79C461.8,59.29 469.7,56.28 474.3,53.54C477.4,51.67 478.4,50.39 478.8,49.96C478.4,49.53 477.4,48.25 474.3,46.38C469.7,43.64 461.8,40.63 451.8,38.13C431.9,33.13 403.4,29.88 372,29.88L372,29.92ZM33.01,71.44L33.01,369.9C33.01,374.2 34.81,377.9 39.81,382.2C44.81,386.5 52.91,390.7 63.11,394.1C78.41,399.2 98.11,402.6 119,403.9L119,278.3L102.5,306.9L94.71,302.4C67.31,286.5 50.41,257.1 50.31,225.4L50.31,216.4L102.9,216.4C102.3,219 102,221.7 102,224.5C102,237.6 108.8,249.3 119,256.2L119,192.8C117.1,194.1 115.4,195.5 113.8,197L87.81,151.9L95.61,147.4C103.1,143.2 110.9,140.1 119,138.1L119,87.61C94.81,86.53 73.01,83.6 55.81,79.29C46.91,77.08 39.31,74.53 33.01,71.44ZM479,71.44C472.7,74.53 465,77.07 456.2,79.28C439,83.59 417.2,86.52 393,87.6L393,138.2C401.1,140.2 409,143.3 416.4,147.5L424.1,152L419.7,159.8L398.2,197C396.6,195.5 394.9,194.1 393,192.8L393,256.2C403.2,249.3 410,237.6 410,224.5C410,221.7 409.7,219 409.1,216.4L459.9,216.4L459.9,225.4C459.9,257.2 442.9,286.5 415.5,302.4L407.7,306.9L393,281.4L393,403.9C413.9,402.6 433.7,399.2 448.9,394.1C459.1,390.7 467.2,386.5 472.2,382.2C477.2,377.9 479,374.2 479,369.9L479,71.44ZM256,73C221.3,73 189.8,76.57 167.7,82.1C156.6,84.87 147.9,88.19 142.6,91.29C138.3,93.87 137.3,95.71 137.1,96C137.3,96.29 138.3,98.12 142.6,100.7C147.9,103.8 156.6,107.1 167.7,109.9C189.8,115.4 221.3,119 256,119C290.7,119 322.2,115.4 344.3,109.9C355.4,107.1 364.1,103.8 369.4,100.7C373.7,98.12 374.7,96.29 374.9,96C374.7,95.71 373.7,93.87 369.4,91.29C364.1,88.19 355.4,84.87 344.3,82.1C322.2,76.57 290.7,73 256,73ZM374.9,96C375,96.1 375,96.1 375,96C375,95.9 375,95.9 374.9,96ZM137.1,96C137,95.9 137,95.9 137,96C137,96.1 137,96.1 137.1,96ZM137,118.1L137,448C137,453 139.2,457.3 144.9,462.2C150.5,467 159.6,471.7 170.8,475.5C193.4,483 224.8,487 256,487C287.2,487 318.6,483 341.2,475.5C352.4,471.7 361.5,467 367.1,462.2C372.8,457.3 375,453 375,448L375,118.1C367.8,121.8 359,124.7 348.7,127.4C324.5,133.4 292,137 256,137C220,137 187.5,133.4 163.3,127.4C153,124.7 144.2,121.8 137,118.1ZM256,191C272.8,191 289.5,195.4 304.5,204L312.3,208.5L307.8,216.3L283.7,257.9C276.4,251.2 266.7,247 256,247C245.3,247 235.6,251.2 228.3,257.9L199.7,208.5L207.5,204C222.5,195.3 239.2,191 256,191ZM256,265C268.8,265 279,275.2 279,288C279,300.8 268.8,311 256,311C243.2,311 233,300.8 233,288C233,275.2 243.2,265 256,265ZM158,280L215.8,280C215.3,282.6 215,285.3 215,288C215,306.1 227,321.7 243.5,327L214.3,377.5L206.5,373C176.5,355.7 158,323.6 158,289L158,280ZM296.2,280L352,280L352,289C352,323.6 333.5,355.7 303.5,373L295.7,377.5L266.9,327.5C284.2,322.7 297,306.7 297,288C297,285.3 296.7,282.6 296.2,280Z"
            style="fill-rule:nonzero;" />
    </g>
</svg>