<?xml version="1.0" encoding="UTF-8" standalone="no"?>
<svg viewBox="0 0 240 240" version="1.1" style="fill-rule:evenodd;clip-rule:evenodd;stroke-linecap:round;stroke-linejoin:round;stroke-miterlimit:1.5;">
    <path d="M20,70L120,20L220,70L220,170L120,220L20,170L20,70Z" style="fill:var(--panel-background);"/>
    <g transform="matrix(1,0,0,1,-336,-192)">
        <path d="M356,262L456,212L556,262L556,362L456,412L356,362L356,262Z" style="fill:none;stroke:var(--application-color);stroke-width:1px;"/>
        <path d="M456,312L556,262L456,312Z" style="fill:none;stroke:var(--application-color);stroke-width:1px;"/>
        <path d="M356,262L456,312" style="fill:none;stroke:var(--application-color);stroke-width:1px;"/>
        <path d="M456,312L456,412" style="fill:none;stroke:var(--application-color);stroke-width:1px;"/>
        <g transform="matrix(1,0,0,1,0,-23)">
            <path d="M364,357L446,398L446,407L364,366L364,357Z" style="fill:var(--application-color);"/>
        </g>
        <g transform="matrix(1,0,0,1,0,-45)">
            <path d="M364,357L446,398L446,407L364,366L364,357Z" style="fill:var(--application-color);"/>
        </g>
        <g transform="matrix(1,0,0,1,0,-69.5)">
            <path d="M364,357L446,398L446,407L364,366L364,357Z" style="fill:var(--application-color);"/>
        </g>
        <path d="M382,249.505L431,225.005L531,275L531,374L481,399L481,299.5L382,249.505Z" style="fill:var(--application-color);"/>
    </g>
</svg>
